<svg width="120.000000" height="120.000000" viewBox="0 0 120 120" fill="none" xmlns="http://www.w3.org/2000/svg"
     xmlns:xlink="http://www.w3.org/1999/xlink">
    <desc>
        Created with Pixso.
    </desc>

    <g id="icon1">
        <defs>
            <clipPath id="clip13_2964">
                <rect width="120.000000" height="120.000000" transform="translate(-0.383606 0.000000)" fill="white"
                      fill-opacity="0"/>
            </clipPath>
        </defs>
        <rect width="120.000000" height="120.000000" transform="translate(-0.383606 0.000000)" fill="#FFFFFF"
              fill-opacity="0"/>
        <g clip-path="url(#clip13_2964)">
            <path d="M7.11 7.5L112.11 7.5L112.11 112.5L7.11 112.5L7.11 7.5Z" fill="#F5DE19" fill-opacity="1.000000"
                  fill-rule="nonzero"/>
            <path d="M77.65 89.53C78.54 91.34 79.93 92.87 81.65 93.93C83.38 94.99 85.37 95.55 87.4 95.53C91.48 95.53 94.1 93.48 94.1 90.65C94.1 87.28 91.41 86.07 86.91 84.1L84.44 83.04C77.32 80.01 72.59 76.21 72.59 68.18C72.59 60.78 78.22 55.14 87.04 55.14C89.9 54.94 92.75 55.58 95.25 56.98C97.74 58.39 99.77 60.49 101.08 63.04L93.36 67.98C92.86 66.71 91.98 65.63 90.85 64.87C89.72 64.12 88.39 63.72 87.03 63.75C86.43 63.69 85.84 63.75 85.27 63.94C84.7 64.12 84.18 64.42 83.73 64.82C83.29 65.22 82.93 65.7 82.69 66.25C82.44 66.79 82.31 67.38 82.31 67.98C82.31 70.93 84.14 72.13 88.37 73.98L90.84 75.03C99.23 78.63 103.97 82.29 103.97 90.53C103.97 99.42 96.99 104.28 87.62 104.28C83.97 104.52 80.32 103.69 77.13 101.9C73.94 100.11 71.34 97.43 69.64 94.19L77.65 89.53ZM42.79 90.38C44.34 93.13 45.75 95.46 49.14 95.46C52.38 95.46 54.43 94.19 54.43 89.26L54.43 55.71L64.29 55.71L64.29 89.39C64.29 99.6 58.29 104.25 49.56 104.25C46.47 104.42 43.4 103.65 40.76 102.05C38.12 100.44 36.03 98.07 34.76 95.25L42.79 90.38Z"
                  fill="#000000" fill-opacity="1.000000" fill-rule="nonzero"/>
        </g>
    </g>

    <g id="icon2">
        <defs>
            <clipPath id="clip13_2967">
                <rect width="120.000000" height="119.000000" transform="translate(-0.767212 0.000000)" fill="white"
                      fill-opacity="0"/>
            </clipPath>
        </defs>
        <rect width="120.000000" height="119.000000" transform="translate(-0.767212 0.000000)" fill="#FFFFFF"
              fill-opacity="0"/>
        <g clip-path="url(#clip13_2967)">
            <path d="M21.36 101.15L12.94 7.43L105.52 7.43L97.08 101.13L59.17 111.56L21.36 101.15Z" fill="#1572B6"
                  fill-opacity="1.000000" fill-rule="nonzero"/>
            <path d="M59.23 103.59L89.87 95.17L97.07 15.1L59.23 15.1L59.23 103.59Z" fill="#33A9DC"
                  fill-opacity="1.000000" fill-rule="nonzero"/>
            <path d="M59.23 49.05L74.57 49.05L75.62 37.28L59.23 37.28L59.23 25.78L88.29 25.78L88.01 28.87L85.17 60.54L59.23 60.54L59.23 49.05Z"
                  fill="#FFFFFF" fill-opacity="1.000000" fill-rule="nonzero"/>
            <path d="M59.3 78.9L59.25 78.91L46.34 75.46L45.51 66.29L33.88 66.29L35.5 84.34L59.24 90.87L59.3 90.86L59.3 78.9Z"
                  fill="#EBEBEB" fill-opacity="1.000000" fill-rule="nonzero"/>
            <path d="M73.58 60.06L72.18 75.45L59.26 78.91L59.26 90.87L83.02 84.34L83.19 82.4L85.21 60.06L73.58 60.06Z"
                  fill="#FFFFFF" fill-opacity="1.000000" fill-rule="nonzero"/>
            <path d="M59.27 25.78L59.27 37.28L31.27 37.28L31.04 34.69L30.51 28.87L30.23 25.78L59.27 25.78ZM59.23 49.05L59.23 60.54L46.48 60.54L46.25 57.96L45.72 52.13L45.45 49.05L59.23 49.05Z"
                  fill="#EBEBEB" fill-opacity="1.000000" fill-rule="nonzero"/>
        </g>
    </g>

    <g id="icon3">
        <defs>
            <clipPath id="clip13_2960">
                <rect width="112.000000" height="112.000000" fill="white" fill-opacity="0"/>
            </clipPath>
        </defs>
        <rect width="112.000000" height="112.000000" fill="#FFFFFF" fill-opacity="0"/>
        <g clip-path="url(#clip13_2960)">
            <path d="M101.53 17.6L81.35 7.88C80.21 7.33 78.93 7.15 77.68 7.37C76.43 7.58 75.28 8.17 74.39 9.07L8.32 69.3C7.52 70.02 7.04 71.04 6.99 72.12C6.94 73.2 7.32 74.26 8.04 75.06C8.13 75.15 8.22 75.25 8.31 75.33L13.71 80.23C14.41 80.87 15.32 81.24 16.27 81.29C17.22 81.33 18.16 81.04 18.92 80.46L98.49 20.12C99.09 19.66 99.81 19.38 100.56 19.31C101.31 19.24 102.07 19.38 102.74 19.72C103.42 20.05 103.99 20.57 104.39 21.21C104.78 21.85 105 22.59 105 23.35L105 23.11C105 21.96 104.67 20.83 104.06 19.86C103.44 18.88 102.57 18.1 101.53 17.6Z"
                  fill="#0065A9" fill-opacity="1.000000" fill-rule="nonzero"/>
            <path d="M101.53 94.39L81.35 104.11C80.21 104.66 78.93 104.84 77.68 104.63C76.43 104.41 75.28 103.82 74.39 102.93L8.32 42.7C7.52 41.97 7.04 40.95 6.99 39.87C6.94 38.79 7.32 37.73 8.04 36.93C8.13 36.84 8.22 36.75 8.31 36.66L13.71 31.76C14.41 31.12 15.32 30.74 16.28 30.7C17.23 30.66 18.17 30.95 18.93 31.53L98.49 91.87C99.09 92.33 99.81 92.61 100.56 92.68C101.31 92.75 102.07 92.61 102.74 92.27C103.42 91.94 103.99 91.42 104.39 90.78C104.78 90.14 105 89.4 105 88.64L105 88.9C104.99 90.04 104.66 91.17 104.05 92.14C103.44 93.11 102.57 93.89 101.53 94.39Z"
                  fill="#007ACC" fill-opacity="1.000000" fill-rule="nonzero"/>
            <path d="M81.35 104.11C80.21 104.66 78.93 104.84 77.68 104.63C76.43 104.41 75.28 103.82 74.39 102.93C74.89 103.42 75.53 103.76 76.22 103.89C76.91 104.03 77.63 103.96 78.28 103.69C78.94 103.42 79.49 102.96 79.89 102.37C80.28 101.79 80.49 101.1 80.5 100.39L80.5 11.6C80.5 10.89 80.29 10.2 79.89 9.61C79.5 9.02 78.94 8.56 78.28 8.29C77.63 8.02 76.9 7.94 76.21 8.08C75.51 8.22 74.87 8.56 74.37 9.07C75.27 8.17 76.42 7.58 77.67 7.36C78.91 7.15 80.19 7.33 81.33 7.88L101.51 17.58C102.55 18.08 103.43 18.86 104.05 19.84C104.67 20.81 104.99 21.94 105 23.1L105 88.9C105 90.05 104.67 91.18 104.06 92.15C103.44 93.13 102.57 93.91 101.53 94.41L81.35 104.11Z"
                  fill="#1F9CF0" fill-opacity="1.000000" fill-rule="nonzero"/>
        </g>
    </g>

    <g id="icon4">
        <defs>
            <clipPath id="clip13_2974">
                <rect width="120.000000" height="120.000000" transform="translate(-0.150818 0.000000)" fill="white"
                      fill-opacity="0"/>
            </clipPath>
        </defs>
        <rect width="120.000000" height="120.000000" transform="translate(-0.150818 0.000000)" fill="#FFFFFF"
              fill-opacity="0"/>
        <g clip-path="url(#clip13_2974)">
            <path d="M21.98 102L13.55 7.5L106.14 7.5L97.7 101.98L59.79 112.5L21.98 102Z" fill="#E44F26"
                  fill-opacity="1.000000" fill-rule="nonzero"/>
            <path d="M59.84 104.46L90.48 95.97L97.69 15.22L59.84 15.22L59.84 104.46Z" fill="#F1662A"
                  fill-opacity="1.000000" fill-rule="nonzero"/>
            <path d="M59.84 50.27L44.51 50.27L43.45 38.4L59.84 38.4L59.84 26.81L30.78 26.81L31.06 29.92L33.91 61.86L59.84 61.86L59.84 50.27ZM59.84 80.37L59.79 80.39L46.88 76.9L46.06 67.66L34.42 67.66L36.05 85.86L59.79 92.45L59.84 92.43L59.84 80.37Z"
                  fill="#EBEBEB" fill-opacity="1.000000" fill-rule="nonzero"/>
            <path d="M59.8 50.27L59.8 61.86L74.08 61.86L72.73 76.9L59.8 80.38L59.8 92.44L83.57 85.86L83.74 83.9L86.46 53.38L86.75 50.27L59.8 50.27ZM59.8 26.81L59.8 38.4L87.8 38.4L88.03 35.8L88.56 29.92L88.84 26.81L59.8 26.81Z"
                  fill="#FFFFFF" fill-opacity="1.000000" fill-rule="nonzero"/>
        </g>
    </g>

    <g id="icon5">
        <defs/>
        <path id="Vector"
              d="M57.83 118.74C56.26 118.47 54.64 117.72 53.72 116.9C53.1 116.25 52.74 115.38 52.73 114.48C52.73 113.56 53.19 112.27 53.94 110.99C54.39 110.26 54.74 109.48 54.99 108.66C55.15 108.09 55.48 107.18 55.73 106.59L56.18 105.52L56.3 98.35C56.36 94.39 56.48 90.72 56.57 90.15C56.83 88.5 57.26 86.9 57.82 85.34L58.25 84.31L57.63 83.94C57.06 83.58 56.59 83.1 54.74 80.89C52.45 78.19 49.44 76.71 45.18 76.2C43.8 76.07 42.39 75.96 40.98 75.91C34.73 75.62 31.16 74.31 27.94 71.14C25.53 68.78 24.29 66.02 23.78 61.96C23.1 56.47 22.34 53.66 20.93 51.38C20.58 50.81 20.18 50.28 19.74 49.79L19.17 49.23L17.92 50.03C17.24 50.48 16.28 51.05 15.81 51.3C14.25 52.16 12.76 53.12 11.34 54.15C7.84 56.69 4.03 59.87 1.94 61.96C1.01 62.9 0.52 63.31 0.3 63.27C-1.12 63.06 -0.03 56.88 2.29 52.23C5.26 46.24 10.26 40.71 16.04 36.98C20.79 33.91 28.47 29.69 32.02 28.21C38.33 25.57 46.49 22.72 52.08 21.2C53.25 20.86 53.97 20.57 54.46 20.24C55.55 19.48 56.63 19.11 57.86 19.09C58.89 19.07 58.99 19.05 59.99 18.38C61.16 17.62 61.51 17.58 62.68 17.99L63.44 18.27L64.38 17.62L65.32 17L66.66 17.01C67.7 17.03 68.17 17 68.62 16.8C69.18 16.54 69.2 16.51 69.36 15.57C69.71 13.54 69.75 12.52 69.54 11.29C69.26 9.67 69.23 3.38 69.5 2.15C69.79 0.82 69.99 0.55 70.98 0.06C72.47 -0.66 73.58 -0.88 76.14 -0.88C79.26 -0.88 80.85 -0.45 82.02 0.69C83.07 1.7 83.25 4.08 82.7 9.67C82.37 12.89 82.33 13.79 82.43 15.9C82.47 17.25 82.56 18.52 82.61 18.69C82.68 19.03 82.76 19.05 83.9 19.07C85.01 19.08 85.2 19.14 86.26 19.69C87.27 20.22 88.04 20.87 88.19 21.33C88.21 21.43 88.39 21.43 88.7 21.33C89.3 21.16 89.83 21.35 90.26 21.88C90.52 22.22 90.67 22.27 91.26 22.27C92.06 22.27 92.36 22.47 93.02 23.45C93.33 23.88 93.76 24.23 94.25 24.44C95.34 24.99 96.83 26.51 97.4 27.72C98.27 29.52 98.45 31.61 97.9 33.48C97.71 34.19 97.71 34.21 98.12 34.89C98.97 36.36 99.29 38.15 98.94 39.68L98.74 40.58L99.33 41.16C102.24 44.07 101.81 48.82 98.25 53.06C97.86 53.54 97.52 54.07 97.26 54.64C96.57 56.45 95.79 57.72 94.78 58.78L93.74 59.83L92.69 59.83C91.64 59.83 90.15 59.48 89.25 59.01C88.88 58.82 88.86 58.82 88.94 59.05C89.18 59.91 89.76 63.4 89.96 65.34C90.27 68.31 90.17 72.62 89.76 74.48C89.46 75.85 88.96 77.18 88.28 78.41C87.89 79.03 87.87 79.17 87.94 79.93C88.06 81 87.81 82.8 87.38 83.99C86.85 85.38 86.65 86.02 86.54 86.72C86.44 87.33 86.44 87.33 86.87 87.33C87.44 87.33 87.75 87.66 87.75 88.32C87.75 88.62 87.49 90.2 87.18 91.82C86.32 96.37 86.26 96.88 86.26 101.29C86.24 105.84 86.24 105.8 87.28 106.49L89.6 107.99C91.6 109.32 93.75 110.42 95.99 111.27C99.25 112.56 99.7 112.89 99.7 113.99C99.7 114.47 99.6 114.65 99.2 115.04C97.95 116.25 95.48 116.52 90.52 116C87.94 115.75 85.36 115.63 82.77 115.62C75.93 115.53 74.93 115.29 74.04 113.59C73.53 112.62 73.63 111.35 74.33 109.26C74.64 108.34 74.91 107.4 75.15 106.44C75.62 104.18 75.31 101.48 74.21 98.44L73.28 95.84C72.36 93.2 71.85 88.38 72.4 87.29C72.5 87.07 72.67 87.03 73.14 87.05L73.73 87.11L74.21 86.09C74.58 85.29 74.99 84.77 76.11 83.65L77.53 82.23L77.45 81.31C77.39 80.43 76.24 76.17 76.08 76.19C76.02 76.19 75.71 76.62 75.36 77.16C74.5 78.45 72.61 80.44 71.53 81.17C71.06 81.48 70.67 81.85 70.67 81.97C70.65 82.5 70.2 83.54 69.66 84.26C69.13 84.96 69.09 85.08 69.17 85.7C69.3 86.62 69.01 89.57 68.66 91.11C68.35 92.26 67.91 93.37 67.37 94.43C66.03 97.22 65.01 99.72 64.76 100.88C64.57 101.99 64.45 103.11 64.4 104.24C64.34 105.56 64.21 106.85 64.11 107.13C63.98 107.5 63.98 107.79 64.09 108.36C64.19 108.77 64.25 109.68 64.23 110.41C64.21 111.41 64.29 112.05 64.58 113.22C65.09 115.21 65.18 116.46 64.95 117.21C64.79 117.68 64.64 117.85 64.11 118.11C62.94 118.71 59.62 119.04 57.82 118.73L57.83 118.74ZM62.57 117.14C63.25 116.94 63.84 116.36 63.84 115.83C63.84 115.59 63.65 114.91 63.41 114.31C62.94 113.16 62.14 110.11 62.14 109.6C62.14 109.35 62.16 109.33 62.55 109.54L62.98 109.78L62.98 109.23C62.92 108.73 62.8 108.23 62.64 107.75C62.27 106.63 62.24 106.61 59.87 106.47L58.27 106.4L57.68 106.96C57.36 107.29 57.08 107.66 56.84 108.06C56.59 108.56 56.49 109.33 56.65 109.5C56.69 109.56 57.08 109.5 57.51 109.4C57.76 109.33 58.02 109.28 58.29 109.27C58.29 109.29 57.86 109.64 57.31 110.01C54.97 111.77 54.15 112.84 54.15 114.21C54.15 115.64 55.49 116.75 57.6 117.08C59.05 117.3 61.86 117.36 62.57 117.14L62.57 117.14ZM94.35 114.81C94.93 114.11 94.85 113.39 94.11 112.57C93.68 112.14 93.19 111.77 92.64 111.47C92.1 111.18 91.55 110.85 91 110.5C90.01 109.86 88.99 109.26 87.95 108.7C87.05 108.21 86.18 107.7 85.32 107.16L84.96 106.89L84.96 101.52C84.96 96.23 84.95 96.15 84.67 96.23C83.3 96.6 81.04 96.77 78.17 96.71L75.06 96.68L75.51 97.77C76.35 99.84 76.79 102.62 76.79 105.8C76.79 106.99 76.71 107.42 76.41 108.26C76.26 108.67 76.12 109.08 75.98 109.49C75.92 109.67 76.14 109.8 76.94 110.04C77.52 110.21 78.38 110.39 78.87 110.45L79.77 110.54L79.68 111.44C79.58 112.46 79.7 113.53 79.95 113.87C80.11 114.06 80.69 114.14 83.41 114.26C85.46 114.35 87.69 114.57 89.44 114.82C90.96 115.06 92.61 115.25 93.09 115.25C93.92 115.27 93.99 115.23 94.34 114.82L94.35 114.81ZM63.08 105.68C63.16 105.62 63.27 104.56 63.32 103.31C63.47 99.82 63.61 99.31 65.37 95.36C66.81 92.14 67.58 89.13 67.52 87L67.48 85.73L66.93 86.26C65.8 87.39 66.58 85.62 67.93 84.03C68.94 82.82 69.3 82.16 69.45 81.09C69.53 80.66 69.69 80.44 70.35 79.94C72.83 78.06 74.75 75.53 75.88 72.63C76.15 71.93 76.85 69.53 77.44 67.3C78.54 63.18 79.12 61.4 79.65 60.64C79.85 60.35 79.92 60.29 79.89 60.48C79.6 61.53 79.38 62.59 79.22 63.66C79.07 64.62 78.77 66.5 78.58 67.8C78.21 70.48 77.82 72.2 77.29 73.53L76.94 74.43L77.87 76.85C78.85 79.33 79.3 81.13 79.38 82.86L79.44 83.84L78.68 84C77.67 84.17 76.77 84.73 76.17 85.56C75.51 86.52 75.14 87.3 75.32 87.47C75.39 87.55 76.35 87.73 77.45 87.86C79.14 88.06 79.79 88.06 82.04 87.92C83.01 87.89 83.97 87.79 84.93 87.65C85.14 87.57 85.36 87.14 85.71 86.03C86.51 83.47 86.66 82.57 86.57 80.78L86.49 79.19L86.9 78.66C87.85 77.45 88.59 75.27 88.91 72.71C89.28 69.58 88.59 63.04 87.32 57.41C86.72 54.74 86.46 53.13 86.46 51.96L86.46 50.93L85.51 51.03C82.07 51.4 77.91 51.3 75.37 50.77C73.98 50.5 70.49 49.46 69.73 49.13L69.12 48.86L69.05 49.54C68.99 49.91 68.93 50.28 68.85 50.67C68.73 51.08 68.77 51.18 69.5 51.88C70.4 52.8 70.67 53.27 70.67 53.89C70.67 54.28 70.46 54.6 69.36 55.73C68.58 56.57 67.7 57.32 66.76 57.98L65.49 58.83L64.94 60.73C62.99 67.66 62.62 73.97 63.91 78.48L64.22 79.61L63.59 80.39C61.25 83.34 59.86 85.59 59.65 86.84C59.52 87.46 59.38 88.07 59.22 88.68C58.71 90.61 58.32 93.44 58.14 96.51C58.02 99.08 57.86 101.64 57.64 104.21L57.54 104.97L58.52 105.26C59.06 105.44 59.88 105.63 60.35 105.71C61.23 105.84 62.85 105.81 63.11 105.67L63.08 105.68ZM82.04 94.93C83.57 94.83 84.95 94.6 85.23 94.37C85.34 94.29 85.48 93.88 85.52 93.47L85.62 92.72L84.41 93C83.45 93.19 82.49 93.31 81.53 93.39C79.23 93.48 76.91 93.42 74.62 93.19C73.86 93.08 73.86 93.08 74.09 94.07C74.28 94.81 74.33 94.85 76.32 94.99C77.64 95.1 79.5 95.09 82.04 94.93L82.04 94.93ZM80.77 91.53C82.76 91.36 85.25 90.93 85.73 90.68C85.89 90.6 86.03 90.3 86.09 89.97L86.26 88.94L86.36 88.45L85.87 88.55C83.7 89 82.06 89.13 78.78 89.13C75.58 89.13 75.21 89.11 74.37 88.82C74.04 88.68 73.7 88.6 73.35 88.58C73.22 88.66 73.19 89.78 73.31 90.56C73.39 91.02 73.47 91.1 73.94 91.24C75.42 91.65 77.93 91.74 80.78 91.51L80.77 91.53ZM44.52 73.92C49.52 72.47 56.07 68.23 61.42 62.92C63.16 61.18 63.37 60.95 63.6 60.17L63.92 59.17C63.95 59.09 63.64 58.96 63.23 58.86C62.16 58.61 61.34 57.98 61.34 57.42C61.34 57.08 61.14 56.75 60.58 56.15C59.66 55.11 59.43 54.66 59.33 53.67L59.25 52.86L58.16 52.08C57.53 51.63 55.34 50.42 53.02 49.25C51.25 48.39 49.52 47.45 47.82 46.44C45.87 45.13 44.56 43.57 43.82 41.72C43.68 41.34 43.51 41.03 43.45 41.03C43.29 41.03 38.9 45.27 37.02 47.26C32.39 52.14 29.21 56.38 27.2 60.31C26.69 61.28 26.14 62.44 25.98 62.87L25.69 63.65L26.04 64.95C26.26 65.66 26.71 66.81 27.06 67.49C28.29 69.92 29.76 71.38 32.18 72.57C34.78 73.86 37.08 74.31 40.93 74.25C43 74.23 43.61 74.17 44.52 73.9L44.52 73.92ZM5.07 56.79C8.35 53.88 12.88 50.69 18.43 47.39C22.07 45.23 36.11 38.19 42.57 35.32C43.75 34.79 44.8 34.31 44.92 34.25C45.03 34.17 45.37 33.33 45.68 32.39C47.05 28.06 47.73 27.2 50.21 26.63C50.52 26.55 50.6 26.46 50.6 26.15C50.6 25.58 50.99 24.27 51.32 23.69C51.58 23.24 51.58 23.22 51.36 23.28C51.23 23.31 50.4 23.55 49.55 23.81C37.63 27.24 27.22 31.81 18.24 37.52C8.65 43.61 3.12 50.91 1.52 59.66L1.4 60.31L2.58 59.16C3.2 58.51 4.34 57.46 5.08 56.81L5.07 56.79ZM93.45 58.45C94.41 57.96 95.89 55.71 96.44 53.94C96.6 53.31 96.91 52.73 97.36 52.24C98.8 50.64 99.99 47.73 100.01 45.74C100.01 42.63 98.25 41.44 95.7 42.77C95.36 42.92 95.09 43.04 95.05 43C94.92 42.87 95.64 42.16 96.52 41.61C97.67 40.85 97.89 40.4 97.89 38.78C97.9 37.47 97.51 36.19 96.77 35.11C96.42 34.58 96.29 34.23 96.34 34.02L96.69 32.71C97.18 30.97 97.01 28.98 96.24 27.71C95.11 25.8 93.72 24.86 91.79 24.7L90.66 24.62L91.32 25.37C93.29 27.5 94.25 30.17 93.86 32.46C93.66 33.63 93.49 33.86 92.36 34.31L91.69 34.59L91.77 35.49C91.91 36.95 91.65 38.03 90.72 40C90.25 41 89.9 41.89 89.94 41.99C90.05 42.32 91.34 42.95 92.36 43.2L93.36 43.44L92.73 43.65C91.91 43.91 91.73 44.28 91.73 45.62C91.73 46.85 91.91 47.36 92.81 48.71C93.21 49.29 93.49 49.9 93.53 50.25C93.61 50.8 93.59 50.84 93.14 50.99C92.63 51.14 92.1 51.22 91.58 51.25C89.74 51.36 89.6 51.42 88.78 52.2C88.04 52.91 88.02 52.95 88.02 53.73C88.02 54.8 88.43 56.97 88.68 57.26C89.02 57.62 90.87 58.53 91.59 58.67C92.22 58.83 92.88 58.75 93.45 58.46L93.45 58.45ZM66.4 56.99C67.59 56.05 68.53 55.11 69.05 54.31C69.39 53.82 69.41 53.72 69.25 53.31C68.97 52.68 67.18 51.06 66.18 50.58C65.52 50.28 64.81 50.08 64.09 49.97L62.86 49.82L62.1 48.86C60.52 46.91 59.64 45.38 58.39 42.43C57.29 39.93 56.34 38.47 54.81 37.02C54.19 36.43 53.74 35.95 53.78 35.95C53.86 35.95 54.6 36.32 55.46 36.77C56.88 37.53 57.06 37.59 57.71 37.49C60.03 37.22 62.08 34.55 62.82 30.8C63.04 29.74 63.47 28.67 63.92 28.02C63.94 28 64.84 28.59 65.89 29.35C68.57 31.24 69.15 31.53 70.68 31.59C71.67 31.63 72.24 31.56 74.04 31.13C77.87 30.19 82.01 29.82 84.53 30.15C85.95 30.35 88 30.97 89.52 31.69C91.03 32.4 91.32 32.43 91.81 32C92.22 31.65 92.22 31.59 92.22 30.29C92.2 28.35 91.49 26.26 90.42 25.01C89.87 24.37 88.33 23.31 86.81 22.51C86.26 22.22 85.72 21.93 85.19 21.63C84.46 21.2 83.64 21.26 81.42 21.85C78.84 22.51 78.15 22.51 75.21 21.75C72.71 21.12 72.55 21.11 70.09 21.5C68.78 21.69 65.5 21.57 64.4 21.28C63.86 21.12 63.31 20.97 62.78 20.78C61.83 20.4 60.17 20.34 58.66 20.62C55.67 21.15 53.41 22.77 52.59 24.97C52.16 26.09 52.22 26.61 52.78 26.96C53.68 27.53 54.87 29.07 54.87 29.68C54.87 29.72 54.58 29.46 54.24 29.11C53.4 28.23 52.64 27.84 51.74 27.84C51.16 27.86 50.59 28.03 50.11 28.36C49.62 28.68 49.23 29.13 48.99 29.66C48.73 30.35 48.51 31.05 48.33 31.77C47.78 33.76 47.29 34.82 46.26 36.22C45.34 37.49 45.2 38.06 45.53 39.48C46.35 43.08 47.78 44.52 53.73 47.9C56.86 49.68 58.46 50.68 59.63 51.56C60.53 52.22 60.55 52.26 60.47 52.77C60.3 53.94 61.04 55.21 62.51 56.24C62.88 56.5 63.11 56.77 63.11 56.97C63.11 57.32 64.11 57.81 64.83 57.81C65.24 57.81 65.55 57.63 66.39 56.99L66.4 56.99ZM90.48 50.4C92.75 50.48 92.86 50.3 91.65 48.9C90.38 47.43 90.03 46.24 90.5 44.93L90.7 44.43L89.9 44.04C89.62 43.9 89.35 43.76 89.07 43.67C88.94 44.19 88.8 44.7 88.68 45.23C88.39 46.42 88.04 49.51 88.02 50.82C88.02 50.93 88.22 50.9 88.55 50.68C89.02 50.41 89.25 50.37 90.48 50.41L90.48 50.4ZM82.88 50.28C84.25 50.21 85.66 50.11 86.03 50.05L86.71 49.95L86.79 47.7C86.91 44.5 87.38 42.61 88.76 39.58C89.74 37.43 90.17 35.55 89.96 34.15C89.88 33.54 89.84 33.5 89.02 33.15C87.51 32.55 85.95 32.13 84.35 31.88C82.81 31.67 78.27 31.78 76.58 32.12C75.87 32.23 74.58 32.5 73.73 32.72C71.6 33.21 70.46 33.15 68.84 32.45C67.24 31.74 66.23 31.1 65.27 30.2C64.51 29.49 64.43 29.46 64.23 29.69C64.08 29.87 64 30.4 63.94 31.53C63.88 33.27 63.61 34.18 62.85 35.41C62.68 35.67 62.53 35.94 62.42 36.22C62.42 36.28 63 36.96 63.72 37.7C66.23 40.3 67.46 40.97 69.43 40.83C70.07 40.77 70.52 40.79 70.52 40.86C70.52 41.02 69.25 42.02 68.73 42.29C68.47 42.42 68.42 42.56 68.45 42.86L68.76 44.91C68.94 46.08 69.08 46.62 69.25 46.78C69.72 47.17 72.14 48.42 73.67 49.05C75.66 49.85 76.75 50.14 78.27 50.28C80.15 50.43 80.19 50.43 82.88 50.28L82.88 50.28ZM66.73 48.14C66.77 48.08 66.63 46.94 66.38 45.63C66.07 43.86 65.89 43.21 65.7 43.04C65.56 42.92 64.84 42.41 64.11 41.88C63.16 41.2 62.26 40.45 61.42 39.64L60.07 38.31L59.35 38.68L58.59 39.09C58.65 39.4 58.76 39.69 58.9 39.97C59.11 40.44 59.54 41.59 59.85 42.53C60.68 44.97 61.32 46.14 62.94 48.27L63.54 49.07L64.7 49.25C65.34 49.34 65.99 49.48 66.16 49.54C66.44 49.65 66.47 49.6 66.55 48.97C66.59 48.7 66.65 48.41 66.73 48.13L66.73 48.14ZM91.48 23.84C92.48 23.74 92.65 23.6 92.22 23.16C91.95 22.88 91.32 22.86 90.81 23.1C90.48 23.25 90.41 23.21 89.88 22.65C89.33 22.04 89.29 22.02 88.61 22.1C87.98 22.18 87.88 22.16 87.8 21.9C87.56 21.48 87.26 21.1 86.9 20.77C86.46 20.27 85.9 19.87 85.28 19.62C84.07 19.15 83.39 19.21 82.23 19.86C78.89 21.67 79.03 21.65 75.81 20.83C72.8 20.07 70.55 19.29 69.83 18.8C69.23 18.39 67.94 17.94 66.86 17.8C66.06 17.69 65.55 17.86 64.79 18.48L64.38 18.82L64.75 19.46C65.26 20.36 65.2 20.42 64.44 19.76C63.62 19.07 62.64 18.6 62.02 18.58C61.57 18.58 60.24 19.17 60.08 19.42C60.02 19.5 60.44 19.6 60.98 19.64C61.55 19.7 62.33 19.89 62.86 20.1C64.23 20.69 64.93 20.88 66.18 21C67.55 21.14 70.02 20.99 70.32 20.75C70.47 20.61 70.9 20.59 71.8 20.67C72.99 20.75 73.48 20.87 76.31 21.63C77.96 22.08 79.11 22.04 81.06 21.51C81.96 21.26 83.09 21 83.56 20.94C84.36 20.87 84.52 20.91 85.77 21.47C87.76 22.37 88.82 22.94 89.4 23.46C89.99 23.97 90.07 23.97 91.47 23.85L91.48 23.84ZM80.34 20.42L81.54 19.8L81.5 18.59C81.48 17.75 81.44 16.92 81.4 16.11L81.3 14.86L80.11 15.78C79.41 16.32 78.72 16.73 78.43 16.79C77.57 16.95 73.34 16.79 72.94 16.58C72.42 16.19 71.93 15.76 71.48 15.29L70.38 14.18L70.36 14.84C70.36 15.19 70.32 15.8 70.25 16.17C70.15 16.87 70.15 16.89 70.91 17.85C71.32 18.37 71.65 18.84 71.65 18.9C71.65 19.27 77.3 21.03 78.57 21.05C78.98 21.05 79.49 20.87 80.34 20.42ZM78.08 15.99C79.49 15.71 80.17 14.7 80.7 12.12C81.24 9.34 81.52 4.99 81.26 3.14C81.03 1.46 79.15 0.71 75.58 0.83C73.35 0.91 72.43 1.12 71.67 1.77C71.2 2.16 71.2 2.2 70.99 4.05C70.6 7.6 71.18 12.66 72.2 14.56C72.69 15.48 73.12 15.81 74.01 15.96C75.03 16.14 77.2 16.14 78.08 15.98L78.08 15.99Z"
              fill="#000000" fill-opacity="1.000000" fill-rule="nonzero"/>
    </g>

    <g id="icon6">
        <defs/>
        <path id="Vector"
              d="M71.77 69.56C75.65 69.16 78.58 65.82 78.45 61.81C78.32 57.81 74.98 54.6 70.97 54.6L70.71 54.6C66.57 54.74 63.36 58.21 63.5 62.35C63.63 64.35 64.43 66.09 65.63 67.29C61.09 76.23 54.15 82.78 43.74 88.25C36.66 91.99 29.32 93.32 21.97 92.39C15.97 91.59 11.29 88.92 8.36 84.51C4.08 77.97 3.68 70.89 7.29 63.82C9.82 58.74 13.83 55 16.37 53.13C15.83 51.4 15.03 48.46 14.63 46.33C-4.73 60.35 -2.73 79.3 3.15 88.25C7.55 94.93 16.5 99.07 26.38 99.07C29.05 99.07 31.72 98.8 34.39 98.13C51.48 94.79 64.43 84.65 71.77 69.56ZM95.27 53C85.13 41.12 70.17 34.58 53.08 34.58L50.95 34.58C49.74 32.17 47.21 30.57 44.4 30.57L44.14 30.57C40 30.7 36.79 34.18 36.93 38.31C37.06 42.32 40.4 45.52 44.4 45.52L44.67 45.52C47.61 45.39 50.15 43.52 51.21 40.98L53.62 40.98C63.76 40.98 73.38 43.92 82.05 49.66C88.73 54.07 93.54 59.81 96.21 66.75C98.48 72.36 98.34 77.84 95.94 82.51C92.2 89.59 85.93 93.46 77.65 93.46C72.31 93.46 67.23 91.85 64.56 90.65C63.1 91.99 60.43 94.12 58.56 95.46C64.3 98.13 70.17 99.6 75.78 99.6C88.6 99.6 98.08 92.52 101.68 85.45C105.55 77.7 105.29 64.35 95.27 53ZM27.45 71.83C27.58 75.83 30.92 79.04 34.92 79.04L35.19 79.04C39.33 78.9 42.53 75.43 42.4 71.29C42.27 67.29 38.93 64.08 34.92 64.08L34.66 64.08C34.39 64.08 33.99 64.08 33.72 64.22C28.25 55.14 25.98 45.26 26.78 34.58C27.31 26.56 29.98 19.62 34.66 13.88C38.53 8.94 46.01 6.54 51.08 6.4C65.23 6.14 71.24 23.76 71.64 30.84C73.38 31.24 76.31 32.17 78.32 32.84C76.71 11.21 63.36 0 50.55 0C38.53 0 27.45 8.67 23.04 21.49C16.9 38.58 20.91 55 28.38 67.96C27.72 68.89 27.31 70.36 27.45 71.83L27.45 71.83Z"
              fill="#764ABC" fill-opacity="1.000000" fill-rule="nonzero"/>
    </g>

    <g id="icon7">
        <defs/>
        <path id="Vector"
              d="M44 0C19.69 0 0 19.69 0 44C0 63.47 12.59 79.91 30.08 85.74C32.28 86.13 33.11 84.81 33.11 83.65C33.11 82.61 33.05 79.14 33.05 75.46C22 77.49 19.14 72.76 18.26 70.29C17.76 69.02 15.62 65.12 13.75 64.07C12.21 63.25 10.01 61.21 13.69 61.16C17.16 61.1 19.63 64.35 20.45 65.67C24.42 72.32 30.74 70.45 33.27 69.3C33.66 66.44 34.81 64.51 36.08 63.41C26.29 62.31 16.06 58.52 16.06 41.69C16.06 36.9 17.76 32.94 20.57 29.86C20.12 28.76 18.59 24.25 21.01 18.2C21.01 18.2 24.69 17.04 33.11 22.71C36.63 21.72 40.37 21.23 44.11 21.23C47.85 21.23 51.59 21.72 55.11 22.71C63.52 16.99 67.21 18.2 67.21 18.2C69.62 24.25 68.08 28.76 67.65 29.86C70.45 32.94 72.16 36.84 72.16 41.69C72.16 58.57 61.87 62.31 52.08 63.41C53.68 64.79 55.05 67.43 55.05 71.55C55.05 77.44 55 82.17 55 83.65C55 84.81 55.82 86.18 58.02 85.74C66.75 82.79 74.34 77.18 79.72 69.69C85.1 62.2 87.99 53.21 88 44C88 19.69 68.31 0 44 0Z"
              fill="#000000" fill-opacity="1.000000" fill-rule="evenodd"/>
    </g>

    <g id="icon8">
        <defs>
            <clipPath id="clip13_2984">
                <rect width="105.000000" height="105.000000" transform="translate(-0.399994 0.000000)" fill="white"
                      fill-opacity="0"/>
            </clipPath>
        </defs>
        <rect width="105.000000" height="105.000000" transform="translate(-0.399994 0.000000)" fill="#FFFFFF"
              fill-opacity="0"/>
        <g clip-path="url(#clip13_2984)">
            <path d="M102.62 47.82L56.77 1.98C54.13 -0.66 49.85 -0.66 47.21 1.98L37.69 11.5L49.76 23.57C52.57 22.62 55.79 23.26 58.03 25.5C60.27 27.75 60.91 30.99 59.93 33.81L71.57 45.45C74.39 44.48 77.64 45.1 79.89 47.36C83.03 50.5 83.03 55.59 79.89 58.73C76.74 61.88 71.65 61.88 68.5 58.73C66.14 56.37 65.56 52.9 66.75 49.98L55.9 39.13L55.9 67.69C56.69 68.08 57.4 68.6 58.03 69.21C61.17 72.36 61.17 77.45 58.03 80.59C54.88 83.74 49.79 83.74 46.65 80.59C43.51 77.45 43.51 72.36 46.65 69.21C47.4 68.46 48.3 67.86 49.28 67.46L49.28 38.63C48.3 38.23 47.4 37.63 46.65 36.87C44.27 34.5 43.69 31 44.91 28.08L33.01 16.17L1.58 47.6C-1.07 50.25 -1.07 54.53 1.58 57.17L47.42 103.01C50.06 105.65 54.34 105.65 56.98 103.01L102.61 57.38C105.26 54.74 105.26 50.46 102.61 47.82L102.62 47.82Z"
                  fill="#DE4C36" fill-opacity="1.000000" fill-rule="nonzero"/>
        </g>
    </g>

    <g id="icon9">
        <defs>
            <clipPath id="clip13_2986">
                <rect width="113.000000" height="101.000000" transform="translate(-0.799988 0.000000)" fill="white"
                      fill-opacity="0"/>
            </clipPath>
        </defs>
        <rect width="113.000000" height="101.000000" transform="translate(-0.799988 0.000000)" fill="#FFFFFF"
              fill-opacity="0"/>
        <g clip-path="url(#clip13_2986)">
            <path d="M92.1 32.7C90.9 32.28 89.69 31.9 88.46 31.55C88.67 30.71 88.86 29.87 89.03 29.06C91.78 15.64 89.98 4.84 83.83 1.28C77.94 -2.13 68.3 1.42 58.56 9.93C57.6 10.77 56.66 11.63 55.75 12.52C55.13 11.93 54.51 11.35 53.88 10.78C43.67 1.69 33.44 -2.14 27.3 1.43C21.41 4.85 19.67 15.01 22.15 27.72C22.4 28.98 22.67 30.23 22.98 31.48C21.54 31.89 20.14 32.33 18.8 32.8C6.84 36.98 -0.8 43.54 -0.8 50.35C-0.8 57.38 7.4 64.43 19.86 68.7C20.87 69.04 21.89 69.36 22.92 69.66C22.58 71 22.29 72.35 22.03 73.71C19.67 86.2 21.51 96.12 27.38 99.52C33.45 103.03 43.63 99.42 53.55 90.72C54.35 90.01 55.14 89.29 55.9 88.54C56.9 89.5 57.91 90.43 58.96 91.34C68.56 99.63 78.05 102.98 83.91 99.57C89.97 96.05 91.94 85.39 89.39 72.43C89.18 71.42 88.96 70.4 88.71 69.4C89.42 69.19 90.13 68.97 90.81 68.74C103.76 64.43 112.19 57.47 112.19 50.35C112.19 43.52 104.3 36.91 92.1 32.7ZM89.29 64.14C88.67 64.35 88.04 64.55 87.39 64.74C85.96 60.19 84.03 55.36 81.67 50.37C83.93 45.5 85.78 40.73 87.17 36.22C88.33 36.55 89.45 36.9 90.53 37.28C100.99 40.89 107.36 46.23 107.36 50.35C107.36 54.73 100.48 60.42 89.29 64.14ZM84.65 73.37C85.78 79.1 85.94 84.29 85.19 88.34C84.52 91.98 83.17 94.41 81.49 95.38C77.93 97.45 70.32 94.76 62.11 87.67C61.14 86.83 60.19 85.96 59.26 85.07C62.45 81.57 65.63 77.51 68.74 73C74.2 72.51 79.36 71.71 84.04 70.63C84.26 71.54 84.47 72.45 84.65 73.37ZM37.72 95.02C34.24 96.25 31.47 96.29 29.8 95.32C26.23 93.26 24.75 85.29 26.77 74.61C27.01 73.35 27.29 72.09 27.6 70.85C32.22 71.87 37.35 72.61 42.82 73.06C45.95 77.47 49.22 81.53 52.52 85.08C51.82 85.77 51.1 86.43 50.37 87.07C45.99 90.92 41.59 93.65 37.72 95.02ZM21.42 64.12C15.91 62.23 11.36 59.77 8.24 57.09C5.44 54.68 4.03 52.29 4.03 50.35C4.03 46.22 10.16 40.95 20.39 37.37C21.63 36.94 22.93 36.53 24.28 36.14C25.69 40.76 27.55 45.59 29.79 50.47C27.52 55.42 25.64 60.32 24.21 64.99C23.27 64.72 22.34 64.43 21.42 64.12ZM26.89 26.79C24.76 15.9 26.17 7.68 29.72 5.62C33.5 3.42 41.86 6.56 50.67 14.41C51.25 14.92 51.81 15.44 52.37 15.98C49.08 19.52 45.84 23.54 42.74 27.93C37.43 28.43 32.34 29.22 27.66 30.28C27.37 29.13 27.12 27.96 26.89 26.79L26.89 26.79ZM75.63 38.87C74.52 36.95 73.37 35.06 72.19 33.2C75.79 33.66 79.25 34.26 82.49 35C81.52 38.14 80.3 41.41 78.88 44.77C77.83 42.78 76.75 40.81 75.63 38.87ZM55.75 19.44C57.98 21.86 60.21 24.56 62.4 27.5C57.95 27.28 53.49 27.28 49.04 27.49C51.24 24.59 53.49 21.89 55.75 19.44ZM35.75 38.9C34.64 40.83 33.57 42.79 32.56 44.77C31.15 41.42 29.95 38.13 28.97 34.95C32.19 34.23 35.63 33.64 39.21 33.19C38.01 35.07 36.86 36.97 35.75 38.9L35.75 38.9ZM39.31 67.85C35.61 67.44 32.12 66.88 28.9 66.17C29.9 62.94 31.13 59.58 32.56 56.16C33.58 58.14 34.65 60.1 35.77 62.03C36.91 64.01 38.1 65.96 39.31 67.85ZM55.88 81.6C53.59 79.12 51.31 76.38 49.08 73.43C51.25 73.52 53.45 73.56 55.7 73.56C58 73.56 60.27 73.51 62.52 73.41C60.32 76.41 58.09 79.15 55.88 81.6ZM78.92 55.99C80.43 59.44 81.7 62.78 82.72 65.96C79.44 66.71 75.9 67.32 72.18 67.77C73.37 65.87 74.53 63.94 75.64 61.99C76.78 60.02 77.87 58.01 78.92 55.99ZM71.46 59.57C69.75 62.56 67.94 65.49 66.04 68.35C62.6 68.6 59.15 68.72 55.7 68.72C52.18 68.72 48.76 68.61 45.47 68.39C43.51 65.53 41.67 62.6 39.94 59.6L39.94 59.6C38.22 56.62 36.61 53.57 35.12 50.46C36.61 47.36 38.21 44.31 39.93 41.32L39.93 41.32C41.64 38.34 43.47 35.42 45.41 32.57C48.77 32.31 52.21 32.18 55.69 32.18L55.7 32.18C59.19 32.18 62.64 32.31 66 32.57C67.92 35.41 69.74 38.32 71.45 41.3C73.17 44.28 74.79 47.31 76.32 50.39C74.81 53.51 73.19 56.57 71.46 59.57ZM81.42 5.48C85.2 7.67 86.68 16.5 84.3 28.08C84.15 28.82 83.98 29.57 83.79 30.33C79.1 29.25 74.01 28.44 68.68 27.94C65.58 23.5 62.36 19.47 59.13 15.97C59.98 15.16 60.84 14.36 61.73 13.58C70.07 6.3 77.87 3.42 81.42 5.48ZM55.7 40.22C61.27 40.22 65.78 44.76 65.78 50.35C65.78 55.94 61.27 60.47 55.7 60.47C50.12 60.47 45.61 55.94 45.61 50.35C45.61 44.76 50.12 40.22 55.7 40.22Z"
                  fill="#00D8FF" fill-opacity="1.000000" fill-rule="nonzero"/>
        </g>
    </g>

    <g id="icon10">
        <path id="Vector"
              d="M99.47 49.07C95.4 49.09 91.86 50.06 88.9 51.5C87.81 49.37 86.72 47.47 86.53 46.07C86.32 44.44 86.06 43.45 86.32 41.51C86.58 39.56 87.73 36.8 87.7 36.58C87.68 36.37 87.45 35.38 85.1 35.36C82.76 35.34 80.74 35.8 80.5 36.41C80.27 37.03 79.82 38.42 79.52 39.86C79.12 41.97 74.83 49.51 72.38 53.47C71.59 51.92 70.91 50.57 70.76 49.49C70.55 47.87 70.29 46.87 70.55 44.93C70.81 42.99 71.96 40.22 71.94 40.01C71.91 39.8 71.68 38.8 69.34 38.78C66.99 38.76 64.97 39.23 64.73 39.84C64.5 40.45 64.24 41.89 63.75 43.28C63.26 44.68 57.57 57.27 56.08 60.52C55.48 61.84 54.85 63.14 54.18 64.43C54.18 64.43 54.16 64.5 54.1 64.6C53.89 65.01 53.68 65.41 53.46 65.81L53.46 65.83C53.14 66.4 52.8 66.93 52.63 66.93C52.5 66.93 52.27 65.4 52.67 63.33C53.52 58.96 55.55 52.16 55.53 51.92C55.53 51.8 55.91 50.61 54.21 50C52.54 49.39 51.95 50.4 51.8 50.4C51.65 50.4 51.54 50.76 51.54 50.76C51.54 50.76 53.4 43.11 48 43.11C44.64 43.11 39.99 46.77 37.69 50.06C35.07 51.48 32.46 52.89 29.85 54.31C28.59 55.01 27.29 55.71 26.08 56.36C25.99 56.28 25.9 56.17 25.82 56.09C19.3 49.18 7.24 44.3 7.75 35.02C7.94 31.64 9.11 22.77 30.91 11.99C48.86 3.22 63.13 5.65 65.61 11.04C69.14 18.73 57.96 33.01 39.42 35.08C32.34 35.87 28.63 33.16 27.7 32.15C26.71 31.09 26.57 31.03 26.2 31.24C25.61 31.56 25.99 32.51 26.2 33.06C26.76 34.49 29.04 37.03 32.89 38.27C36.3 39.37 44.59 39.99 54.63 36.14C65.86 31.83 74.64 19.85 72.06 9.81C69.48 -0.37 52.44 -3.73 36.3 1.95C26.71 5.33 16.32 10.66 8.84 17.59C-0.05 25.83 -1.46 32.99 -0.88 35.99C1.18 46.64 16 53.57 21.92 58.71C21.62 58.88 21.34 59.02 21.11 59.15C18.15 60.61 6.85 66.46 4.04 72.65C0.84 79.67 4.55 84.7 7 85.37C14.61 87.46 22.43 83.7 26.63 77.49C30.83 71.28 30.32 63.21 28.38 59.51C28.36 59.47 28.33 59.42 28.29 59.38C29.06 58.94 29.85 58.47 30.61 58.03C32.02 57.2 33.45 56.41 34.9 55.64C34.17 57.61 33.64 59.95 33.38 63.33C33.06 67.31 34.71 72.46 36.86 74.49C37.82 75.38 38.95 75.4 39.67 75.4C42.19 75.4 43.32 73.33 44.57 70.88C46.11 67.88 47.49 64.39 47.49 64.39C47.49 64.39 45.77 73.81 50.45 73.81C52.16 73.81 53.89 71.62 54.65 70.5L54.65 70.52C54.65 70.52 54.7 70.45 54.78 70.31C54.95 70.03 55.06 69.86 55.06 69.86L55.06 69.82C55.74 68.64 57.27 65.95 59.55 61.5C62.49 55.75 65.33 48.56 65.33 48.56C65.33 48.56 65.59 50.32 66.46 53.23C66.97 54.95 68.04 56.83 68.89 58.64C68.21 59.59 67.78 60.12 67.78 60.12L67.8 60.14C67.25 60.86 66.65 61.64 65.99 62.4C63.67 65.15 60.9 68.3 60.51 69.21C60.06 70.29 60.17 71.07 61.02 71.7C61.64 72.17 62.75 72.23 63.88 72.17C65.97 72.02 67.44 71.51 68.16 71.19C69.29 70.79 70.61 70.18 71.85 69.27C74.13 67.6 75.51 65.21 75.39 62.07C75.32 60.33 74.75 58.6 74.04 56.97C74.26 56.68 74.45 56.38 74.66 56.09C78.26 50.87 81.06 45.14 81.06 45.14C81.06 45.14 81.31 46.89 82.19 49.81C82.61 51.29 83.49 52.9 84.25 54.46C80.86 57.19 78.78 60.35 78.03 62.43C76.69 66.27 77.73 68 79.71 68.4C80.61 68.6 81.89 68.17 82.82 67.77C84.02 67.39 85.42 66.74 86.77 65.76C89.05 64.09 91.24 61.77 91.11 58.62C91.05 57.19 90.67 55.77 90.13 54.4C93.01 53.21 96.72 52.56 101.45 53.11C111.59 54.29 113.6 60.57 113.21 63.21C112.83 65.85 110.7 67.29 110 67.73C109.29 68.17 109.06 68.32 109.12 68.64C109.21 69.1 109.55 69.08 110.15 69C110.98 68.85 115.47 66.86 115.66 62C115.98 55.79 110.02 49.01 99.47 49.07ZM21.22 75.23C17.85 78.86 13.16 80.24 11.14 79.08C8.96 77.83 9.82 72.46 13.95 68.62C16.46 66.27 19.7 64.09 21.86 62.76C22.35 62.47 23.07 62.05 23.94 61.52C24.09 61.43 24.18 61.39 24.18 61.39L24.69 61.07C26.2 66.57 24.75 71.41 21.22 75.23ZM45.72 58.71C44.55 61.54 42.1 68.79 40.61 68.38C39.33 68.05 38.54 62.55 40.35 57.12C41.27 54.4 43.21 51.14 44.34 49.87C46.17 47.85 48.2 47.17 48.69 47.99C49.3 49.07 46.45 56.93 45.72 58.71ZM65.95 68.3C65.46 68.55 64.99 68.72 64.77 68.6C64.63 68.51 64.99 68.17 64.99 68.17C64.99 68.17 67.52 65.47 68.53 64.24C69.1 63.52 69.78 62.68 70.51 61.73L70.51 62C70.51 65.24 67.35 67.41 65.95 68.3L65.95 68.3ZM81.55 64.77C81.18 64.52 81.25 63.67 82.46 61.03C82.93 60 84.04 58.26 85.94 56.59C86.15 57.27 86.3 57.92 86.28 58.54C86.26 62.62 83.32 64.14 81.55 64.77Z"
              fill="#CD6799" fill-opacity="1.000000" fill-rule="nonzero"/>

    </g>

    <g id="icon11">
        <defs>
            <clipPath id="clip13_2990">
                <rect width="88.000000" height="87.000000" transform="translate(-0.600037 0.000000)" fill="white"
                      fill-opacity="0"/>
            </clipPath>
        </defs>
        <rect width="88.000000" height="87.000000" transform="translate(-0.600037 0.000000)" fill="#FFFFFF"
              fill-opacity="0"/>
        <g clip-path="url(#clip13_2990)">
            <path d="M-0.61 75.78C-0.61 81.97 4.48 87 10.74 87L76.05 87C82.32 87 87.4 81.97 87.4 75.78L87.4 11.21C87.4 5.02 82.31 0 76.05 0L10.74 0C4.47 0 -0.61 5.02 -0.61 11.21L-0.61 75.78L-0.61 75.78Z"
                  fill="#563D7C" fill-opacity="1.000000" fill-rule="nonzero"/>
            <path d="M35.89 38.48L35.89 26.16L46.86 26.16C47.9 26.16 48.91 26.24 49.88 26.42C50.85 26.59 51.71 26.9 52.45 27.34C53.2 27.78 53.8 28.4 54.24 29.18C54.69 29.97 54.92 30.98 54.92 32.21C54.92 34.42 54.24 36.02 52.9 37C51.56 37.99 49.84 38.48 47.75 38.48L35.89 38.48ZM24.17 17.16L24.17 69.83L49.99 69.83C52.38 69.83 54.7 69.54 56.97 68.95C59.23 68.36 61.25 67.45 63.01 66.22C64.78 64.99 66.18 63.4 67.23 61.46C68.27 59.52 68.8 57.22 68.8 54.56C68.8 51.27 67.99 48.45 66.37 46.11C64.75 43.78 62.3 42.14 59.02 41.21C61.41 40.08 63.21 38.63 64.43 36.86C65.65 35.08 66.26 32.87 66.26 30.22C66.26 27.76 65.85 25.69 65.03 24.02C64.21 22.35 63.05 21.01 61.56 20C60.06 18.99 58.27 18.26 56.18 17.82C54.09 17.38 51.78 17.16 49.24 17.16L24.17 17.16ZM35.89 60.83L35.89 46.37L48.65 46.37C51.18 46.37 53.22 46.95 54.77 48.11C56.31 49.26 57.08 51.19 57.08 53.9C57.08 55.27 56.84 56.41 56.37 57.29C55.9 58.18 55.26 58.88 54.47 59.39C53.67 59.91 52.75 60.28 51.71 60.5C50.66 60.72 49.57 60.83 48.42 60.83L35.89 60.83Z"
                  fill="#FFFFFF" fill-opacity="1.000000" fill-rule="nonzero"/>
        </g>
    </g>

    <g id="icon12">
        <defs>
            <clipPath id="clip13_2993">
                <rect width="131.000000" height="131.000000" fill="white" fill-opacity="0"/>
            </clipPath>
        </defs>
        <rect width="131.000000" height="131.000000" fill="#FFFFFF" fill-opacity="0"/>
        <g clip-path="url(#clip13_2993)">
            <path d="M36.84 56.08C40.66 40.8 50.21 33.15 65.5 33.15C88.42 33.15 91.29 50.35 102.75 53.21C110.39 55.12 117.08 52.26 122.81 44.62C118.99 59.9 109.44 67.54 94.15 67.54C71.23 67.54 68.36 50.35 56.9 47.48C49.26 45.57 42.57 48.44 36.84 56.08ZM8.18 90.47C12 75.18 21.56 67.54 36.84 67.54C59.76 67.54 62.63 84.74 74.09 87.6C81.73 89.51 88.42 86.65 94.15 79C90.33 94.29 80.78 101.93 65.5 101.93C42.57 101.93 39.7 84.74 28.24 81.87C20.6 79.96 13.91 82.83 8.18 90.47Z"
                  fill="#44A8B3" fill-opacity="1.000000" fill-rule="nonzero"/>
        </g>
    </g>

    <!--social-->

    <g id="icon13">
        <path id="Vector"
              d="M24 18.5C24 19.68 23.64 20.84 22.98 21.83C22.32 22.82 21.39 23.58 20.29 24.04C19.19 24.49 17.99 24.61 16.82 24.38C15.66 24.15 14.59 23.58 13.75 22.74C12.91 21.9 12.34 20.83 12.11 19.67C11.88 18.5 12 17.3 12.45 16.2C12.91 15.1 13.67 14.17 14.66 13.51C15.65 12.85 16.81 12.5 18 12.5C19.59 12.5 21.11 13.13 22.24 14.25C23.36 15.38 23.99 16.9 24 18.5ZM36.75 10.25L36.75 26.75C36.74 29.53 35.63 32.2 33.67 34.17C31.7 36.13 29.03 37.24 26.25 37.25L9.75 37.25C6.96 37.24 4.29 36.13 2.32 34.17C0.36 32.2 -0.75 29.53 -0.75 26.75L-0.75 10.25C-0.75 7.46 0.36 4.79 2.32 2.82C4.29 0.86 6.96 -0.25 9.75 -0.25L26.25 -0.25C29.03 -0.25 31.7 0.86 33.67 2.82C35.63 4.79 36.74 7.46 36.75 10.25ZM27 18.5C27 16.71 26.47 14.98 25.48 13.49C24.49 12.01 23.08 10.86 21.44 10.18C19.79 9.5 17.99 9.32 16.24 9.67C14.49 10.02 12.89 10.87 11.63 12.13C10.37 13.39 9.52 14.99 9.17 16.74C8.82 18.49 9 20.29 9.68 21.94C10.36 23.58 11.51 24.99 12.99 25.98C14.47 26.97 16.21 27.5 18 27.5C20.38 27.49 22.67 26.54 24.36 24.86C26.04 23.17 26.99 20.88 27 18.5ZM30 8.75C30 8.3 29.86 7.86 29.62 7.5C29.37 7.12 29.02 6.84 28.61 6.67C28.19 6.5 27.74 6.45 27.31 6.54C26.87 6.63 26.47 6.84 26.15 7.15C25.84 7.47 25.63 7.87 25.54 8.31C25.45 8.74 25.5 9.19 25.67 9.61C25.84 10.02 26.13 10.37 26.5 10.62C26.87 10.86 27.3 11 27.75 11C28.34 11 28.91 10.76 29.34 10.34C29.76 9.91 30 9.34 30 8.75Z"
              fill="#25282B" fill-opacity="1.000000" fill-rule="nonzero"/>

    </g>

    <g id="icon14">
        <path id="Vector"
              d="M0 2.22C0 0.71 1.24 -0.5 2.79 -0.5L35.2 -0.5C36.75 -0.5 38 0.71 38 2.22L38 34.77C38 36.28 36.75 37.5 35.2 37.5L2.79 37.5C1.24 37.5 0 36.28 0 34.77L0 2.22ZM11.73 31.31L11.73 14.15L6.03 14.15L6.03 31.31L11.73 31.31ZM8.88 11.8C10.87 11.8 12.11 10.49 12.11 8.84C12.07 7.15 10.87 5.87 8.92 5.87C6.97 5.87 5.7 7.16 5.7 8.84C5.7 10.49 6.93 11.8 8.85 11.8L8.88 11.8ZM20.54 31.31L20.54 21.72C20.54 21.21 20.58 20.7 20.73 20.33C21.14 19.31 22.08 18.25 23.66 18.25C25.72 18.25 26.55 19.82 26.55 22.13L26.55 31.31L32.25 31.31L32.25 21.46C32.25 16.19 29.44 13.74 25.68 13.74C22.66 13.74 21.3 15.4 20.54 16.57L20.54 16.63L20.5 16.63C20.52 16.61 20.53 16.59 20.54 16.57L20.54 14.15L14.84 14.15C14.91 15.76 14.84 31.31 14.84 31.31L20.54 31.31Z"
              fill="#25282B" fill-opacity="1.000000" fill-rule="nonzero"/>

    </g>

    <g id="icon15">
        <path id="Vector"
              d="M0.13 3.64C0.39 2.46 1.04 1.41 1.97 0.66C2.9 -0.09 4.06 -0.5 5.25 -0.5L36.75 -0.5C37.93 -0.5 39.09 -0.09 40.02 0.66C40.95 1.41 41.6 2.46 41.86 3.64L21 16.6L0.13 3.64ZM0 6.69L0 25.63L15.23 16.14L0 6.69ZM17.74 17.71L0.5 28.45C0.92 29.36 1.6 30.13 2.44 30.67C3.28 31.21 4.25 31.5 5.25 31.5L36.75 31.5C37.74 31.5 38.71 31.21 39.55 30.67C40.39 30.13 41.07 29.36 41.49 28.44L24.24 17.71L21 19.72L17.74 17.71L17.74 17.71ZM26.76 16.15L42 25.63L42 6.69L26.76 16.14L26.76 16.15Z"
              fill="#25282B" fill-opacity="1.000000" fill-rule="evenodd"/>

    </g>

</svg>
